# xmcd CD database file
#
# Track frame offsets:
#	150
#	41050
#	66005
#	87092
#	100805
#	123962
#	135812
#	157260
#	169045
#	191387
#	204129
#	223250
#	255150
#	275655
#	290962
#	301225
#
# Disc length: 4426 seconds
#
# Revision: 0
# Processed by: cddbd v1.5.2PL0 Copyright (c) Steve Scherf et al.
# Submitted via: CDex 1.70beta2
#
DISCID=e1114810
DTITLE=Various Artist - Bar Jazz 4 [CD2 Cocktail Lounge)
DYEAR=2002
DGENRE=Jazz
TTITLE0=Miles Davis - Someday My Prince Will Come
TTITLE1=Tuck and Patti - Still Tossin And Turnin (Remix)
TTITLE2=Stan Getz and Joao Gilberto - Aguas De Marco
TTITLE3=Paul Desmond - Song From M*A*S*H (Suicide Is Painless)
TTITLE4=Louis Armstrong - Do You Know What It Means To Miss New Orleans
TTITLE5=Rosemary Clooney - I Let A Go Out Of My Heart
TTITLE6=Greag Adams - Burma Road
TTITLE7=The Hi-Lo's - Stormy Wheather
TTITLE8=Gerry Mulligan - Here I'll Stay
TTITLE9=Baden Powell - Fim Da Linha
TTITLE10=Vienna DC - Dope Control
TTITLE11=Black Note - Dream Of Elizabeth Brown
TTITLE12=Kirk Whalum - Peaceful Hideaway
TTITLE13=Dave McKenna - Secret Love
TTITLE14=Ray Bryant - On Green Dolphin Street
TTITLE15=Antonio Hart - Ama Tu Sonrisa
EXTD=YEAR: 2002
EXTT0=
EXTT1=
EXTT2=
EXTT3=
EXTT4=
EXTT5=
EXTT6=
EXTT7=
EXTT8=
EXTT9=
EXTT10=
EXTT11=
EXTT12=
EXTT13=
EXTT14=
EXTT15=
PLAYORDER=
